<?xml version="1.0" encoding="UTF-8" standalone="no"?>
<svg width="60px" height="60px" viewBox="0 0 60 60" version="1.1" xmlns="http://www.w3.org/2000/svg" xmlns:xlink="http://www.w3.org/1999/xlink" xmlns:sketch="http://www.bohemiancoding.com/sketch/ns">
    <!-- Generator: Sketch 3.3.3 (12072) - http://www.bohemiancoding.com/sketch -->
    <title>Artboard 1</title>
    <desc>Created with Sketch.</desc>
    <defs></defs>
    <g id="Page-2" stroke="none" stroke-width="1" fill="none" fill-rule="evenodd" sketch:type="MSPage">
        <g id="Artboard-1" sketch:type="MSArtboardGroup" fill="#F0F2F3">
            <path d="M30.0025,13 C31.1025,13 32.0025,13.9 32.0025,15 L32.0025,40.18 L38.5925,33.59 C39.3725,32.8 40.6325,32.8 41.4125,33.59 C42.2025,34.37 42.2025,35.63 41.4125,36.41 L31.4125,46.41 C31.3225,46.5 31.2225,46.58 31.1225,46.66 C31.1125,46.66 31.1025,46.67 31.1025,46.67 C31.0025,46.73 30.8925,46.79 30.7825,46.84 C30.7725,46.85 30.7625,46.85 30.7525,46.85 C30.6425,46.9 30.5225,46.93 30.4025,46.96 L30.3825,46.96 C30.2625,46.99 30.1325,47 30.0025,47 C29.8725,47 29.7425,46.99 29.6225,46.96 L29.6025,46.96 C29.4825,46.93 29.3625,46.9 29.2525,46.85 C29.2425,46.85 29.2325,46.85 29.2225,46.84 C29.1125,46.79 29.0025,46.73 28.9025,46.67 C28.9025,46.67 28.8925,46.66 28.8825,46.66 C28.7825,46.58 28.6825,46.5 28.5925,46.41 C28.5425,46.36 28.5025,46.32 28.4625,46.27 L18.5925,36.41 C17.8025,35.63 17.8025,34.37 18.5925,33.59 C19.3725,32.8 20.6325,32.8 21.4125,33.59 L28.0025,40.18 L28.0025,15 C28.0025,13.9 28.9025,13 30.0025,13" id="Imported-Layers" sketch:type="MSShapeGroup" transform="translate(30.002500, 30.000000) rotate(-90.000000) translate(-30.002500, -30.000000) "></path>
        </g>
    </g>
</svg>